External Loads File
version=1
nRows=85
nColumns=13
Range=5.000000e-03-10 seconds
endheader
time 	forceRightX 	forceRightY 	forceRightZ 	pointRightX 	pointRightY 	pointRightZ 	forceLeftX 	forceLeftY 	forceLeftZ 	pointLeftX 	pointLeftY 	pointLeftZ 		
5.005000 95.420339 310.791581 -0.000000 0.316709 0.157042 -0.195456 -51.723020 -69.646246 -0.000000 0.340736 0.502334 -0.441704
5.010000 97.501677 273.886189 -0.000000 0.304568 0.158342 -0.195677 -57.858002 -58.040134 -0.000000 0.349896 0.501134 -0.442369
5.015000 97.683841 238.138527 -0.000000 0.292301 0.160339 -0.195558 -63.930996 -43.826029 -0.000000 0.358744 0.499187 -0.442716
5.020000 96.174724 204.210232 -0.000000 0.280062 0.163000 -0.195138 -70.085692 -26.792758 -0.000000 0.367112 0.496526 -0.443224
5.025000 93.361237 172.645896 -0.000000 0.267916 0.166268 -0.195022 -76.532619 -6.722177 -0.000000 0.375026 0.493019 -0.443755
5.030000 89.931395 143.715525 -0.000000 0.256075 0.170246 -0.194727 -83.505591 16.721183 -0.000000 0.382874 0.488622 -0.444413
5.035000 86.074187 117.797602 -0.000000 0.244498 0.174876 -0.194893 -91.174466 43.640067 -0.000000 0.390360 0.483538 -0.444859
5.040000 82.113365 95.038189 -0.000000 0.233359 0.180145 -0.194578 -99.683778 74.080400 -0.000000 0.397433 0.477959 -0.445341
5.045000 78.343651 75.386286 -0.000000 0.222654 0.185898 -0.194232 -109.099149 107.941953 -0.000000 0.404087 0.471661 -0.445876
5.050000 74.990215 58.581492 -0.000000 0.212253 0.192186 -0.193750 -119.321962 144.985291 -0.000000 0.410347 0.464605 -0.446334
5.055000 72.116013 44.280100 -0.000000 0.202706 0.199056 -0.193454 -130.107741 184.716735 -0.000000 0.416636 0.457073 -0.446738
5.060000 69.622608 32.197696 -0.000000 0.193609 0.206432 -0.193225 -141.309781 226.220199 -0.000000 0.422665 0.449204 -0.446865
5.065000 67.392692 21.990197 -0.000000 0.184981 0.214322 -0.192973 -152.563128 268.460776 -0.000000 0.428400 0.440874 -0.446914
5.070000 65.248544 13.385398 -0.000000 0.177302 0.222593 -0.192638 -163.540477 310.226583 -0.000000 0.434042 0.432045 -0.446705
5.075000 63.016104 6.175321 -0.000000 0.170094 0.231144 -0.192333 -173.860777 350.370719 -0.000000 0.439788 0.422759 -0.446581
5.080000 60.566560 0.310007 -0.000000 0.163544 0.240027 -0.192222 -183.708242 387.687280 -0.000000 0.445035 0.413119 -0.446382
5.085000 57.860411 -4.316649 -0.000000 0.157455 0.249248 -0.192266 -192.989864 421.486182 -0.000000 0.449863 0.403249 -0.446321
5.090000 54.903700 -7.812589 -0.000000 0.152084 0.258819 -0.192375 -201.601220 451.496371 -0.000000 0.454415 0.393214 -0.446200
5.095000 51.743136 -10.242107 -0.000000 0.147615 0.268523 -0.192452 -209.661441 477.743588 -0.000000 0.458762 0.382812 -0.446066
5.100000 48.479289 -11.669084 -0.000000 0.143588 0.278602 -0.193076 -217.251158 500.621263 -0.000000 0.462467 0.372252 -0.446383
5.105000 45.268138 -12.156765 -0.000000 0.140363 0.288731 -0.192985 -224.770768 520.656949 -0.000000 0.465642 0.361499 -0.445920
5.110000 42.246542 -11.912559 -0.000000 0.137623 0.299279 -0.193233 -231.423469 539.051968 -0.000000 0.468380 0.350584 -0.445817
5.115000 39.567889 -11.026420 -0.000000 0.135572 0.309812 -0.193709 -238.182577 556.249590 -0.000000 0.470451 0.339683 -0.445789
5.120000 37.305337 -9.786147 -0.000000 0.134495 0.320589 -0.194179 -243.971718 573.429413 -0.000000 0.472025 0.328681 -0.445315
5.125000 35.510362 -8.426506 -0.000000 0.134248 0.331442 -0.194195 -248.686216 591.107729 -0.000000 0.473181 0.317609 -0.445839
5.130000 34.157866 -7.240681 -0.000000 0.134804 0.342408 -0.194609 -251.624809 609.757204 -0.000000 0.473411 0.306452 -0.445707
5.135000 33.143334 -6.506057 -0.000000 0.136225 0.353419 -0.195300 -252.425202 629.393566 -0.000000 0.473000 0.295315 -0.445630
5.140000 32.289774 -6.462381 -0.000000 0.138481 0.364436 -0.195898 -250.689386 649.740983 -0.000000 0.471934 0.284281 -0.445684
5.145000 31.381723 -7.268921 -0.000000 0.141615 0.375356 -0.196509 -246.071777 670.225386 -0.000000 0.470163 0.273423 -0.445707
5.150000 30.191958 -9.031631 -0.000000 0.145468 0.386345 -0.197362 -237.880761 690.197201 -0.000000 0.467695 0.262794 -0.445704
5.155000 28.528067 -11.759629 -0.000000 0.150170 0.396985 -0.198106 -226.541781 708.533187 -0.000000 0.464621 0.252374 -0.445708
5.160000 26.230628 -15.454285 -0.000000 0.155576 0.407377 -0.198926 -211.904314 724.374892 -0.000000 0.460887 0.242255 -0.445513
5.165000 23.190257 -20.074528 -0.000000 0.161656 0.417493 -0.199476 -194.285185 736.849099 -0.000000 0.456556 0.232471 -0.445518
5.170000 19.344462 -25.575641 -0.000000 0.168493 0.427246 -0.199942 -173.825937 745.326959 -0.000000 0.451647 0.222951 -0.445474
5.175000 14.714296 -31.891240 -0.000000 0.175877 0.436757 -0.200183 -151.438798 749.254265 -0.000000 0.446209 0.213954 -0.445559
5.180000 9.380391 -38.986641 -0.000000 0.183902 0.445658 -0.200521 -128.042709 748.440365 -0.000000 0.440231 0.205400 -0.445465
5.185000 3.515147 -46.882671 -0.000000 0.191588 0.454192 -0.202107 -105.431779 742.930458 -0.000000 0.433747 0.197396 -0.445325
5.190000 -3.049291 -55.662876 -0.000000 0.201437 0.462294 -0.201033 -80.116506 733.781258 -0.000000 0.426829 0.189864 -0.445178
5.195000 -10.061916 -65.353295 -0.000000 0.211452 0.469790 -0.201375 -55.958229 721.159425 -0.000000 0.419451 0.182797 -0.445054
5.200000 -17.387701 -75.955915 -0.000000 0.221107 0.476839 -0.201818 -34.126668 705.827518 -0.000000 0.411689 0.176203 -0.444825
5.205000 -25.180641 -87.245031 -0.000000 0.231682 0.483289 -0.201744 -12.824538 688.602391 -0.000000 0.403517 0.170255 -0.444790
5.210000 -33.284379 -98.850100 -0.000000 0.242517 0.489107 -0.202387 6.915183 669.908802 -0.000000 0.395054 0.164744 -0.444659
5.215000 -41.663592 -110.180105 -0.000000 0.253779 0.494221 -0.202702 25.456097 650.000909 -0.000000 0.386213 0.159913 -0.444616
5.220000 -50.196274 -120.494377 -0.000000 0.265265 0.498765 -0.202939 42.738665 628.912966 -0.000000 0.377096 0.155701 -0.444577
5.225000 -58.708366 -128.928211 -0.000000 0.276934 0.502651 -0.203237 58.779818 606.533846 -0.000000 0.367674 0.152247 -0.444527
5.230000 -66.942051 -134.579970 -0.000000 0.288755 0.505822 -0.203521 73.558278 582.671517 -0.000000 0.358029 0.149426 -0.444485
5.235000 -74.524363 -136.653098 -0.000000 0.300672 0.508314 -0.203706 86.826176 557.116276 -0.000000 0.348209 0.147389 -0.444402
5.240000 -81.149561 -134.515616 -0.000000 0.312742 0.510002 -0.204013 98.682110 529.567924 -0.000000 0.338227 0.145979 -0.444342
5.245000 -86.423530 -127.909763 -0.000000 0.324786 0.511016 -0.204089 108.627214 499.810607 -0.000000 0.328202 0.145338 -0.444271
5.250000 -90.109574 -116.853828 -0.000000 0.336676 0.511157 -0.204339 116.320613 467.680973 -0.000000 0.318221 0.145324 -0.444168
5.255000 -92.236940 -101.472126 -0.000000 0.348565 0.510643 -0.204434 121.928356 433.051041 -0.000000 0.308148 0.145998 -0.444087
5.260000 -92.871676 -82.060405 -0.000000 0.360485 0.509601 -0.204832 125.255419 396.130817 -0.000000 0.297949 0.147462 -0.443428
5.265000 -92.134202 -59.173174 -0.000000 0.371875 0.507866 -0.204840 125.466484 357.692436 -0.000000 0.288212 0.149682 -0.443375
5.270000 -90.661605 -33.144559 -0.000000 0.382885 0.505320 -0.204783 123.179172 318.404715 -0.000000 0.278622 0.152738 -0.443255
5.275000 -89.137758 -4.394502 -0.000000 0.393743 0.501941 -0.204769 118.801752 279.252097 -0.000000 0.269221 0.156387 -0.443146
5.280000 -88.227932 26.680381 -0.000000 0.404096 0.497626 -0.204823 112.660095 241.400190 -0.000000 0.260012 0.160828 -0.442978
5.285000 -88.360290 60.029509 -0.000000 0.414192 0.491467 -0.204380 105.738114 205.679821 -0.000000 0.250964 0.165771 -0.442856
5.290000 -90.055590 95.190330 -0.000000 0.423573 0.485398 -0.203978 97.735017 173.372376 -0.000000 0.242436 0.171514 -0.442552
5.295000 -93.670303 132.188755 -0.000000 0.432193 0.479019 -0.203371 89.427134 144.984484 -0.000000 0.234289 0.177695 -0.442223
5.300000 -99.323764 171.206050 -0.000000 0.440050 0.471961 -0.202585 81.504680 120.719690 -0.000000 0.226509 0.184457 -0.441837
5.305000 -107.101288 212.378150 -0.000000 0.447329 0.464391 -0.202123 74.372497 100.618011 -0.000000 0.219164 0.191824 -0.441524
5.310000 -116.858021 255.783700 -0.000000 0.454311 0.456209 -0.200718 68.369836 84.443245 -0.000000 0.212233 0.199653 -0.441336
5.315000 -128.466752 301.128340 -0.000000 0.460867 0.447234 -0.199626 63.607728 71.808132 -0.000000 0.205824 0.207835 -0.441072
5.320000 -142.005444 347.550105 -0.000000 0.467369 0.438743 -0.198580 59.981402 62.224613 -0.000000 0.199924 0.216598 -0.440835
5.325000 -155.145755 394.636604 -0.000000 0.473561 0.427815 -0.197015 57.627254 54.775346 -0.000000 0.194608 0.225256 -0.440731
5.330000 -168.155883 440.500984 -0.000000 0.479336 0.417285 -0.195393 56.062358 49.048252 -0.000000 0.189888 0.234902 -0.440591
5.335000 -182.341793 482.810989 -0.000000 0.484692 0.407937 -0.195061 54.795370 44.701372 -0.000000 0.185779 0.244533 -0.440513
5.340000 -194.140691 521.354147 -0.000000 0.489789 0.397515 -0.196020 53.852035 40.897250 -0.000000 0.182256 0.254343 -0.440645
5.345000 -204.230385 554.861475 -0.000000 0.494279 0.386793 -0.196162 52.904083 37.448221 -0.000000 0.179329 0.264306 -0.440777
5.350000 -212.233456 583.087407 -0.000000 0.498264 0.375761 -0.195909 51.870580 34.164110 -0.000000 0.177068 0.274444 -0.441058
5.355000 -218.663686 605.973317 -0.000000 0.501921 0.364713 -0.196286 50.728141 31.022103 -0.000000 0.175534 0.284632 -0.441256
5.360000 -222.717005 624.286341 -0.000000 0.505268 0.353584 -0.196858 49.593424 27.904137 -0.000000 0.174671 0.295190 -0.441429
5.365000 -225.255182 638.360568 -0.000000 0.507886 0.342585 -0.196827 48.538334 24.825710 -0.000000 0.174320 0.305769 -0.441443
5.370000 -225.163370 649.240011 -0.000000 0.509747 0.331331 -0.196651 47.731828 21.628259 -0.000000 0.174537 0.316462 -0.441509
5.375000 -223.000950 657.271809 -0.000000 0.510919 0.320373 -0.196830 47.206911 18.248775 -0.000000 0.175353 0.327383 -0.441592
5.380000 -218.199733 663.062558 -0.000000 0.511422 0.309408 -0.197153 46.892667 14.532577 -0.000000 0.176874 0.338397 -0.441799
5.385000 -209.456200 667.344827 -0.000000 0.511141 0.297662 -0.195739 46.584522 10.323054 -0.000000 0.178644 0.349442 -0.441679
5.390000 -200.134322 669.340345 -0.000000 0.509208 0.286940 -0.196850 45.975218 5.841973 -0.000000 0.180988 0.360507 -0.441840
5.395000 -189.405013 669.625806 -0.000000 0.506880 0.276436 -0.196525 44.930825 1.024609 -0.000000 0.184025 0.371382 -0.441539
5.400000 -176.510594 668.624726 -0.000000 0.503533 0.266038 -0.196533 43.392492 -4.204547 -0.000000 0.187492 0.382397 -0.441636
5.405000 -162.552608 666.146024 -0.000000 0.499400 0.255817 -0.196499 41.366646 -9.821675 -0.000000 0.191577 0.393085 -0.441605
5.410000 -148.023722 662.147156 -0.000000 0.494477 0.246055 -0.196446 38.909215 -15.866579 -0.000000 0.196266 0.403484 -0.441459
5.415000 -133.324617 656.627656 -0.000000 0.488799 0.236705 -0.196506 36.115238 -22.410782 -0.000000 0.201331 0.413528 -0.441517
5.420000 -118.002423 649.805759 -0.000000 0.482273 0.227649 -0.196618 33.066030 -29.602873 -0.000000 0.206897 0.423328 -0.441362
5.425000 -102.519669 641.739582 -0.000000 0.475011 0.219042 -0.196889 29.815286 -37.518648 -0.000000 0.212992 0.432767 -0.441351
